<?xml version="1.0" standalone="no"?>
<!DOCTYPE svg PUBLIC "-//W3C//DTD SVG 20010904//EN"
 "http://www.w3.org/TR/2001/REC-SVG-20010904/DTD/svg10.dtd">
<svg version="1.0" xmlns="http://www.w3.org/2000/svg"
 width="639.000000pt" height="639.000000pt" viewBox="0 0 639.000000 639.000000"
 preserveAspectRatio="xMidYMid meet">

<g transform="translate(0.000000,639.000000) scale(0.100000,-0.100000)"
fill="#000000" stroke="none">
<path d="M0 3195 l0 -3195 1346 0 c1277 0 1345 1 1340 18 -5 16 -19 148 -66
622 -11 113 -25 241 -30 285 -13 102 -31 284 -80 810 -52 554 -49 524 -70 650
-37 222 -44 293 -43 445 0 106 5 180 17 235 24 114 24 114 47 64 12 -24 39
-82 60 -129 22 -47 47 -99 55 -116 22 -43 150 -188 204 -229 25 -19 52 -41 61
-50 9 -8 19 -15 23 -15 9 0 102 -75 127 -102 21 -23 48 -25 29 -3 -11 13 -10
14 4 9 10 -4 15 -12 12 -20 -7 -18 12 -31 57 -39 36 -7 49 -27 27 -40 -6 -4
-8 -15 -5 -26 7 -22 -2 -42 -16 -33 -6 4 -6 11 2 20 19 23 -4 15 -33 -11 -16
-13 -28 -31 -28 -40 0 -11 -6 -15 -18 -11 -12 4 -30 -6 -56 -33 -38 -39 -41
-61 -8 -59 9 1 45 -18 79 -41 l61 -41 -5 -53 c-3 -29 -14 -65 -25 -80 -39 -54
-157 -394 -194 -558 -65 -288 -104 -714 -104 -1136 l0 -293 1810 0 1810 0 0
3195 0 3195 -3195 0 -3195 0 0 -3195z m3820 2306 c3 -5 15 -11 28 -15 12 -4
22 -12 22 -17 0 -6 4 -7 10 -4 6 3 7 -1 4 -9 -5 -13 -10 -13 -27 -4 -12 7 -25
11 -29 10 -5 -1 -8 5 -8 13 0 8 -6 15 -12 15 -7 0 -22 8 -33 17 -19 15 -19 15
10 8 16 -3 32 -10 35 -14z m13 -71 c29 -23 43 -25 51 -7 3 6 3 2 0 -10 -3 -13
-1 -23 5 -23 6 0 11 5 11 11 0 5 5 7 10 4 6 -3 10 -16 10 -28 0 -17 -2 -19 -9
-8 -7 11 -10 7 -13 -15 -3 -29 21 -71 83 -139 15 -16 30 -41 34 -55 4 -14 14
-33 23 -42 14 -16 13 -18 -4 -18 -10 0 -28 7 -38 15 -27 21 -39 19 -33 -5 5
-19 4 -19 -23 3 -15 12 -25 26 -22 31 3 5 0 6 -7 1 -8 -4 -25 5 -45 24 -18 18
-45 33 -59 35 -33 3 -92 51 -111 90 -9 17 -16 25 -16 17 0 -8 -2 -12 -5 -9 -3
3 -3 12 1 21 5 13 12 10 40 -20 35 -37 62 -40 29 -3 -10 11 -13 20 -7 20 6 0
22 -15 36 -32 20 -26 28 -30 38 -20 13 13 32 17 24 4 -3 -5 4 -8 16 -7 32 2
31 34 -3 74 -16 20 -29 40 -29 46 0 6 -5 16 -12 23 -14 14 -20 42 -8 42 4 0
19 -9 33 -20z m-863 -117 c8 -4 19 -12 23 -20 4 -7 16 -13 26 -13 28 0 63 -38
56 -61 -6 -17 -3 -19 18 -14 14 4 28 2 31 -4 4 -6 2 -11 -5 -11 -8 0 -8 -5 2
-16 9 -11 23 -14 45 -11 23 4 38 0 53 -14 25 -23 27 -31 6 -23 -8 4 -15 1 -15
-5 0 -6 5 -11 11 -11 6 0 8 -7 5 -15 -4 -11 3 -20 22 -28 15 -6 33 -17 40 -24
21 -20 42 -15 52 13 8 21 6 29 -18 49 -15 13 -24 26 -20 30 10 10 91 -35 121
-69 16 -17 28 -24 27 -16 -1 8 1 24 5 36 6 20 9 19 83 -18 42 -22 68 -32 58
-24 -10 8 -22 17 -25 18 -12 6 -51 66 -51 80 0 8 3 9 8 3 4 -6 25 -23 47 -40
22 -16 42 -32 45 -35 3 -3 22 -14 43 -23 20 -10 37 -22 37 -27 0 -6 3 -9 8 -8
15 5 72 -25 72 -39 0 -7 7 -16 15 -19 8 -4 15 -10 15 -15 0 -5 -8 -5 -17 1
-51 28 -104 48 -100 37 4 -12 46 -41 90 -59 23 -10 37 -28 23 -28 -10 0 -132
66 -138 75 -4 5 -1 16 5 24 10 12 9 13 -10 3 -29 -16 -38 -32 -19 -32 9 0 16
-4 16 -9 0 -5 9 -13 21 -16 11 -4 19 -9 16 -11 -2 -2 -20 3 -40 11 -40 17 -60
4 -22 -13 14 -7 25 -17 25 -23 0 -6 6 -9 14 -6 8 3 20 -1 26 -9 7 -8 17 -14
22 -14 5 0 21 -9 35 -20 22 -17 23 -20 7 -20 -11 1 -37 7 -59 15 -42 15 -62
11 -32 -7 18 -9 18 -11 -2 -24 -15 -11 -38 -13 -88 -9 -47 4 -62 2 -48 -4 19
-9 19 -10 -2 -10 -31 -1 -18 -31 13 -31 13 0 24 -4 24 -10 0 -11 -19 -14 -70
-11 -37 3 -33 -14 5 -21 12 -2 19 -10 17 -21 -2 -11 4 -17 16 -17 28 0 34 -11
15 -32 -12 -14 -13 -18 -3 -18 11 0 11 -3 2 -12 -24 -24 -11 -29 63 -27 47 1
80 -2 87 -9 7 -7 19 -12 28 -12 37 0 93 -23 120 -50 27 -26 28 -31 14 -44 -12
-12 -13 -20 -4 -36 13 -25 -4 -54 -27 -45 -8 3 -24 -2 -36 -10 -12 -8 -30 -15
-40 -15 -13 0 -17 -5 -13 -15 3 -8 4 -15 3 -16 -1 0 -63 -6 -137 -14 -74 -7
-225 -23 -335 -34 -591 -62 -868 -86 -891 -77 -13 5 -14 -5 -9 -69 6 -64 4
-75 -10 -75 -12 0 -15 -9 -13 -42 2 -24 7 -46 13 -50 5 -4 4 -17 -5 -32 -12
-23 -11 -28 4 -45 24 -27 2 -37 -24 -11 -29 29 -41 25 -33 -12 4 -18 7 -49 7
-70 1 -20 5 -36 10 -35 5 1 11 -4 13 -11 3 -7 1 -12 -4 -11 -22 4 -33 -3 -33
-20 0 -11 4 -21 9 -23 6 -1 14 -30 20 -63 6 -33 13 -77 17 -97 6 -34 4 -38
-21 -44 -15 -4 -30 -3 -34 2 -3 5 -18 16 -32 24 -62 35 -150 185 -163 276 -4
27 -23 81 -42 120 -33 69 -54 174 -41 208 5 12 11 13 36 3 31 -11 39 -23 47
-66 7 -33 13 -43 26 -35 5 3 7 17 4 29 -3 13 -3 30 0 39 7 18 34 10 34 -10 0
-8 7 -14 15 -14 8 0 15 -9 15 -19 0 -11 5 -23 10 -26 6 -4 9 -23 8 -43 -3 -36
-2 -37 32 -37 32 1 36 4 41 35 6 31 7 29 8 -16 1 -42 5 -53 21 -57 16 -4 18
-2 10 13 -6 11 -6 21 -1 24 5 4 5 23 0 48 -6 23 -8 47 -5 55 7 16 -16 17 -32
1 -10 -10 -12 -8 -11 7 1 11 1 29 0 40 l-2 20 -9 -20 c-5 -11 -9 -42 -10 -70
-1 -55 -9 -50 -34 26 -16 47 -18 109 -4 109 5 0 14 12 21 28 6 15 22 38 34 52
13 14 23 33 23 42 0 10 5 18 12 18 6 0 8 3 5 7 -4 3 -2 13 5 20 9 11 9 16 -1
22 -20 13 4 43 51 65 37 17 40 17 59 1 10 -10 19 -26 19 -37 0 -20 1 -21 25
-12 15 6 15 8 -1 25 -9 10 -13 23 -9 29 6 9 10 9 16 -1 6 -10 9 -8 9 9 0 25
21 52 39 52 6 0 11 -4 11 -10 0 -5 7 -7 15 -4 8 4 15 12 15 18 0 21 51 58 71
53 11 -3 17 -1 14 3 -3 5 1 12 8 17 8 4 17 19 20 33 6 24 5 25 -41 23 -26 0
-33 1 -17 3 52 8 106 37 102 55 -3 12 1 15 13 12 10 -3 27 0 37 6 16 9 16 11
-7 12 -33 3 -42 4 -62 14 -21 9 -24 25 -4 25 7 0 16 9 19 20 3 13 0 20 -9 20
-8 0 -14 5 -14 10 0 12 17 13 24 1 3 -5 15 -11 27 -14 17 -5 20 -2 16 14 -3
12 0 19 9 19 8 0 14 -7 14 -15 0 -8 7 -15 15 -15 13 0 14 4 5 21 -14 25 -7 35
11 16 17 -16 49 -29 49 -19 0 4 -7 16 -15 26 -8 11 -15 24 -15 28 0 11 38 -13
43 -27 2 -5 2 2 0 18 -5 31 3 34 35 11 31 -22 46 -9 27 24 -8 15 -19 38 -25
52 -6 14 -19 40 -31 59 -29 48 -11 56 36 16 29 -24 35 -34 23 -35 -21 0 -25
-20 -4 -20 7 0 29 -3 47 -6 28 -5 32 -4 22 6 -9 10 -10 17 -2 27 7 7 7 13 2
13 -14 0 -68 79 -82 120 l-12 35 30 -35 c17 -19 30 -38 31 -42 0 -5 7 -8 15
-8 8 0 15 -6 15 -13 0 -7 14 -18 30 -24 36 -14 37 -11 8 30 -13 18 -24 39 -26
47 -5 20 -22 30 -50 30 -15 0 -26 7 -29 20 -3 10 -16 26 -29 35 -13 8 -24 20
-24 25 0 6 16 0 35 -12 19 -13 35 -28 35 -33 0 -6 12 -12 26 -13 15 -1 32 -6
38 -11 7 -6 17 -7 23 -3 9 5 3 16 -17 35 -17 16 -31 23 -35 17 -3 -5 -10 -10
-14 -10 -11 0 -61 44 -61 53 0 15 30 6 42 -13 7 -11 16 -20 20 -20 14 0 8 37
-7 50 -8 7 -13 16 -10 20 2 4 -5 16 -16 26 -17 15 -24 16 -40 6 -23 -15 -25
-5 -2 20 15 17 18 17 37 3 12 -8 28 -18 36 -22z m665 -53 c23 -26 8 -26 -25 0
-18 14 -21 20 -9 20 9 0 24 -9 34 -20z m54 -69 c34 -31 35 -39 3 -22 -14 7
-17 4 -18 -17 -1 -15 1 -22 3 -15 8 22 32 2 27 -22 -3 -17 2 -27 16 -35 26
-14 25 -26 -1 -33 -21 -6 -92 37 -146 86 -43 38 -14 29 51 -17 37 -25 66 -43
66 -40 0 12 -45 64 -56 64 -6 0 -22 9 -35 20 -17 14 -19 18 -6 14 9 -3 17 -3
17 1 0 4 -8 14 -17 21 -17 12 -17 13 -1 14 9 0 23 -9 31 -20 12 -17 16 -18 20
-6 4 9 -4 21 -19 30 -13 9 -24 21 -24 26 0 15 48 -12 89 -49z m-919 17 c0 -5
-13 -2 -30 7 -16 9 -30 17 -30 19 0 3 14 -1 30 -7 17 -6 30 -15 30 -19z m760
2 c0 -5 -4 -12 -10 -15 -5 -3 -10 -4 -10 -1 0 2 -3 12 -6 20 -5 12 -2 15 10
10 9 -3 16 -10 16 -14z m-213 -56 c-10 -10 -37 10 -37 27 0 18 1 18 21 -2 11
-11 19 -23 16 -25z m-496 10 c9 -11 8 -14 -2 -14 -15 1 -49 23 -49 33 0 10 39
-5 51 -19z m952 -20 c9 -4 17 -10 17 -15 0 -11 -31 1 -50 20 -13 13 -13 13 0
8 8 -4 23 -10 33 -13z m88 -10 c21 -24 22 -26 3 -16 -25 13 -50 42 -37 42 5 0
20 -12 34 -26z m-991 -25 c0 -5 -7 -6 -15 -3 -8 4 -15 13 -15 21 0 13 3 13 15
3 8 -7 15 -16 15 -21z m976 -46 c2 -15 -2 -20 -11 -17 -18 7 -25 27 -18 54 6
21 6 21 16 4 6 -11 12 -29 13 -41z m-96 31 c0 -2 -7 -4 -15 -4 -8 0 -15 4 -15
10 0 5 7 7 15 4 8 -4 15 -8 15 -10z m-445 -14 c3 -5 1 -10 -4 -10 -6 0 -11 5
-11 10 0 6 2 10 4 10 3 0 8 -4 11 -10z m-392 -14 c4 -10 1 -13 -9 -9 -15 6
-19 23 -5 23 5 0 11 -7 14 -14z m981 -15 c-2 -3 -12 3 -22 13 -16 17 -16 18 5
5 12 -7 20 -15 17 -18z m-1664 9 c0 -5 -5 -10 -11 -10 -5 0 -7 5 -4 10 3 6 8
10 11 10 2 0 4 -4 4 -10z m-90 -10 c0 -5 -4 -10 -10 -10 -5 0 -10 5 -10 10 0
6 5 10 10 10 6 0 10 -4 10 -10z m1777 -36 c-3 -3 -12 -4 -19 -1 -8 3 -5 6 6 6
11 1 17 -2 13 -5z m-1757 -14 c0 -5 -4 -10 -9 -10 -6 0 -13 5 -16 10 -3 6 1
10 9 10 9 0 16 -4 16 -10z m-8 -81 c-23 -9 -27 -3 -12 16 11 13 15 13 21 3 5
-8 2 -15 -9 -19z m705 16 c9 -24 -1 -27 -15 -5 -8 13 -8 20 -2 20 6 0 13 -7
17 -15z m-567 -35 c0 -5 -4 -10 -10 -10 -5 0 -10 5 -10 10 0 6 5 10 10 10 6 0
10 -4 10 -10z m217 -16 c-3 -3 -12 -4 -19 -1 -8 3 -5 6 6 6 11 1 17 -2 13 -5z
m1570 -86 c-3 -8 -6 -5 -6 6 -1 11 2 17 5 13 3 -3 4 -12 1 -19z m-1732 2 c-3
-5 -2 -10 4 -10 5 0 13 5 16 10 3 6 11 10 18 10 8 0 8 -3 0 -11 -6 -6 -9 -18
-6 -25 7 -19 -21 -18 -37 1 -7 8 -20 15 -29 16 -12 0 -11 2 4 9 28 12 37 12
30 0z m1795 -4 c0 -2 -7 -6 -15 -10 -8 -3 -15 -1 -15 4 0 6 7 10 15 10 8 0 15
-2 15 -4z m-547 -13 c-7 -2 -19 -2 -25 0 -7 3 -2 5 12 5 14 0 19 -2 13 -5z
m-1473 -23 c0 -5 -7 -10 -15 -10 -8 0 -15 5 -15 10 0 6 7 10 15 10 8 0 15 -4
15 -10z m1480 -30 c0 -5 -2 -10 -4 -10 -3 0 -8 5 -11 10 -3 6 -1 10 4 10 6 0
11 -4 11 -10z m422 -48 c-14 -4 -17 -32 -3 -32 5 0 11 5 13 11 3 9 10 9 26 0
21 -11 24 -9 33 18 6 17 14 31 18 31 11 0 32 -58 33 -90 1 -17 4 -33 8 -35 4
-2 8 -28 9 -57 1 -29 4 -61 7 -70 3 -10 0 -18 -6 -18 -6 0 -8 -5 -4 -11 13
-22 13 -78 0 -73 -8 3 -11 -6 -9 -28 17 -199 -16 -233 -52 -53 -9 44 -18 89
-19 100 -2 11 -8 33 -15 48 -6 16 -11 35 -11 43 0 17 16 19 23 2 4 -9 6 -8 6
3 1 8 -4 20 -11 27 -14 14 -42 16 -33 2 3 -5 1 -18 -4 -27 -6 -10 -11 -13 -12
-8 -1 6 -2 15 -4 20 -1 6 -3 18 -3 28 -1 10 -6 15 -12 12 -11 -7 -12 -2 -14
63 -2 48 5 53 24 18 12 -23 43 -40 54 -29 3 3 0 15 -6 27 -7 11 -11 25 -10 30
2 5 -6 6 -18 3 -11 -3 -20 -1 -20 4 0 5 -10 14 -22 19 l-23 9 23 7 c19 5 20 9
10 22 -12 14 -10 14 12 2 15 -8 20 -15 12 -18z m-1817 -22 c8 -13 -5 -13 -25
0 -13 8 -13 10 2 10 9 0 20 -4 23 -10z m-99 -35 c3 -19 10 -35 16 -35 5 0 6
-5 2 -11 -10 -17 -34 13 -40 49 -7 44 13 41 22 -3z m1658 -28 c-5 -13 -9 -14
-25 -4 -18 11 -18 13 -2 25 20 14 36 2 27 -21z m-1144 -17 c0 -5 -4 -10 -10
-10 -5 0 -10 5 -10 10 0 6 5 10 10 10 6 0 10 -4 10 -10z m-520 -33 c0 -5 -4
-5 -10 -2 -5 3 -10 14 -10 23 0 15 2 15 10 2 5 -8 10 -19 10 -23z m60 23 c0
-5 -8 -10 -17 -10 -15 0 -16 2 -3 10 19 12 20 12 20 0z m-133 -70 c-4 -16 -2
-32 4 -36 6 -4 2 -14 -10 -26 -18 -16 -19 -22 -9 -41 30 -56 6 -94 -28 -42
-15 22 -14 26 3 57 10 18 22 36 27 39 5 4 5 12 1 18 -7 13 1 61 11 61 4 0 4
-13 1 -30z m1963 -16 c0 -8 -4 -12 -10 -9 -5 3 -10 10 -10 16 0 5 5 9 10 9 6
0 10 -7 10 -16z m30 -79 c6 -25 5 -35 -3 -32 -6 2 -13 21 -15 43 -5 47 6 40
18 -11z m-190 -39 c0 -16 -21 -26 -53 -26 -21 0 -21 1 3 20 29 23 50 26 50 6z
m30 -7 c0 -5 -4 -9 -10 -9 -5 0 -10 7 -10 16 0 8 5 12 10 9 6 -3 10 -10 10
-16z m-1670 -37 c-11 -22 -20 -45 -20 -50 0 -14 -59 -66 -67 -59 -3 4 -2 7 4
7 6 0 16 15 23 33 12 30 72 118 77 113 2 -1 -6 -21 -17 -44z m-186 -44 c4 -16
11 -28 17 -28 6 0 7 5 4 10 -8 14 8 13 22 -1 6 -6 9 -18 6 -26 -4 -9 2 -16 16
-20 12 -3 20 -11 18 -17 -5 -13 -39 -9 -48 5 -3 5 -12 7 -20 4 -24 -9 -52 89
-32 109 4 4 8 4 9 -1 1 -4 5 -20 8 -35z m172 -113 c-9 -9 -16 -13 -16 -8 0 12
22 34 28 28 2 -2 -3 -11 -12 -20z m2018 -192 c4 -17 10 -172 7 -200 0 -7 -5
-13 -11 -13 -5 0 -7 7 -4 15 4 9 0 15 -10 15 -12 0 -16 9 -16 34 0 30 -3 35
-27 38 -18 2 -27 8 -25 17 6 29 -10 73 -24 67 -15 -6 -20 19 -6 28 15 9 51 -6
55 -23 3 -12 7 -9 15 12 13 30 38 36 46 10z m-221 -11 c-6 -4 -15 -28 -18 -52
-3 -25 -7 -52 -8 -61 -2 -9 -10 -28 -20 -42 -9 -14 -22 -59 -29 -99 -12 -76
-28 -112 -28 -65 0 27 -13 36 -25 17 -10 -16 7 -60 24 -61 10 0 11 -2 4 -6
-21 -8 -55 -133 -48 -174 5 -30 10 -36 26 -32 14 4 19 0 19 -15 0 -11 -3 -22
-7 -25 -5 -2 -1 -2 7 1 52 16 60 15 60 -9 -1 -21 -2 -22 -11 -6 -12 21 -29 22
-29 2 0 -8 -4 -15 -10 -15 -5 0 -10 -13 -10 -29 0 -17 5 -33 10 -36 6 -3 10 4
10 16 0 34 12 15 18 -28 8 -64 4 -93 -18 -123 -12 -17 -18 -35 -15 -41 9 -14
-10 -61 -57 -139 -41 -67 -85 -101 -100 -77 -6 9 -8 9 -8 0 0 -7 -13 -28 -30
-46 -16 -19 -30 -39 -30 -45 0 -5 -7 -12 -15 -16 -8 -3 -20 -17 -25 -31 -6
-15 -14 -23 -20 -20 -11 7 -67 -20 -72 -35 -4 -14 -77 -31 -100 -24 -10 3 -18
2 -18 -3 0 -15 -57 -14 -70 2 -10 12 -15 12 -35 -1 -24 -16 -155 -17 -155 -2
0 4 -10 8 -23 8 -14 0 -51 27 -102 75 -48 45 -86 74 -96 72 -9 -2 -34 9 -57
24 -42 29 -55 21 -27 -15 21 -27 19 -33 -11 -39 -16 -3 -24 0 -21 7 3 7 -1 20
-9 31 -10 13 -14 15 -14 5 0 -8 -12 2 -27 23 -14 20 -29 37 -34 37 -13 0 -21
53 -8 60 8 6 5 12 -11 20 -16 9 -20 18 -16 35 4 14 -3 39 -17 66 -13 24 -24
55 -25 68 0 14 -10 36 -20 50 -22 31 -34 101 -20 125 11 20 -8 116 -23 116 -5
0 -9 -15 -9 -32 0 -18 -5 -40 -11 -48 -7 -11 -8 -1 -3 34 6 41 4 51 -12 63
-10 7 -13 13 -7 13 12 0 11 80 -1 118 -5 16 -3 24 8 28 9 3 16 11 16 16 0 6 7
16 17 23 10 8 13 17 7 26 -4 8 -10 23 -11 33 -2 11 -16 40 -31 65 -49 81 -51
78 41 90 79 10 210 23 552 56 88 8 230 22 315 31 424 43 547 51 523 36z m169
-162 c10 -14 21 -42 24 -62 7 -43 -2 -91 -16 -83 -6 3 -10 -1 -10 -9 0 -9 -7
-16 -16 -16 -9 0 -12 -5 -8 -11 4 -7 1 -10 -7 -7 -8 3 -14 15 -13 27 0 11 -3
21 -8 21 -5 0 -8 38 -7 84 3 75 5 83 22 82 11 -1 28 -12 39 -26z m-1710 -20
c5 -33 -6 -50 -16 -24 -3 8 -10 13 -15 10 -5 -3 -12 1 -15 10 -3 8 -2 12 4 9
6 -3 13 1 16 9 10 25 21 19 26 -14z m17 -101 c-14 -27 -27 -24 -22 5 3 16 10
23 19 19 10 -4 11 -10 3 -24z m-48 -12 c-8 -8 -11 -7 -11 4 0 20 13 34 18 19
3 -7 -1 -17 -7 -23z m89 -20 c0 -4 -6 -2 -14 5 -8 7 -12 17 -9 22 5 8 23 -12
23 -27z m-3 -51 c0 -11 -7 -9 -23 7 -12 12 -20 25 -17 30 7 11 40 -19 40 -37z
m1437 -19 c-3 -9 -11 -17 -17 -17 -8 0 -8 3 0 11 6 6 9 19 6 28 -4 12 -3 13 6
5 6 -6 9 -18 5 -27z m-9 -74 c-1 -21 -3 -46 -4 -55 -1 -26 -21 -22 -21 5 0 17
-2 19 -10 7 -8 -12 -10 -12 -15 2 -8 21 3 41 17 32 8 -5 9 -1 5 10 -4 9 -3 15
2 12 5 -3 11 1 15 9 10 26 15 16 11 -22z m-1455 -49 c0 -20 -17 -17 -23 4 -2
9 -8 26 -12 37 -6 17 -4 17 14 -4 12 -13 21 -29 21 -37z m1488 38 c6 -18 -15
-14 -22 4 -4 10 -1 14 6 12 6 -2 14 -10 16 -16z m-21 -44 c-3 -8 -6 -5 -6 6
-1 11 2 17 5 13 3 -3 4 -12 1 -19z m43 3 c0 -4 -12 -21 -26 -36 -18 -20 -28
-25 -36 -17 -8 8 -4 14 14 21 14 5 28 17 31 25 7 17 17 22 17 7z m-1455 -31
c3 -11 3 -24 0 -30 -3 -5 2 -10 11 -10 14 0 15 -3 6 -12 -8 -8 -15 -8 -27 2
-13 10 -13 15 -3 21 10 7 10 11 0 21 -14 14 -16 28 -3 28 5 0 12 -9 16 -20z
m1465 -20 c0 -5 -7 -10 -16 -10 -8 0 -12 5 -9 10 3 6 10 10 16 10 5 0 9 -4 9
-10z m-11 -34 c7 -8 8 -17 3 -19 -4 -3 -13 3 -20 14 -14 22 0 26 17 5z m5 -77
c-3 -5 -10 -7 -15 -3 -5 3 -7 10 -3 15 3 5 10 7 15 3 5 -3 7 -10 3 -15z m-39
-8 c3 -5 1 -12 -5 -16 -5 -3 -10 1 -10 9 0 18 6 21 15 7z m-30 -191 c3 -5 1
-10 -4 -10 -6 0 -11 5 -11 10 0 6 2 10 4 10 3 0 8 -4 11 -10z m-46 -197 c-30
-62 -101 -143 -125 -143 -6 0 -11 13 -12 28 0 20 7 33 29 47 17 11 42 40 56
65 15 25 38 61 52 80 24 33 26 34 29 12 2 -12 -11 -52 -29 -89z m89 -33 c6
-41 10 -142 11 -225 0 -82 1 -157 1 -165 1 -8 -3 -53 -9 -100 -6 -47 -17 -139
-25 -205 -13 -104 -37 -284 -101 -755 -8 -58 -37 -253 -65 -435 -27 -181 -57
-392 -67 -467 -9 -76 -19 -138 -22 -138 -3 0 -14 50 -24 112 -16 98 -44 195
-46 161 -1 -7 -6 -13 -12 -13 -7 0 -9 9 -5 23 3 14 -1 33 -11 46 -12 18 -14
37 -9 82 3 36 2 59 -4 59 -6 0 -10 7 -10 15 0 8 5 15 10 15 6 0 10 -5 10 -11
0 -5 5 -7 11 -3 7 4 7 9 1 13 -5 3 -12 16 -16 28 -4 12 -19 31 -32 42 -25 19
-25 22 -13 58 12 35 14 36 18 13 l4 -25 6 25 c10 35 1 80 -15 80 -7 0 -12 10
-12 23 4 60 -2 85 -22 90 -11 3 -23 1 -26 -5 -8 -12 -33 22 -34 45 0 10 7 20
16 24 12 5 13 7 3 14 -8 5 -17 3 -21 -4 -12 -19 -10 10 2 33 6 12 7 33 1 57
-8 32 -9 34 -10 11 -1 -16 -5 -28 -9 -28 -14 0 -11 72 4 95 11 17 12 26 1 48
-6 15 -15 27 -19 27 -11 0 -10 -18 2 -25 13 -8 13 -45 0 -45 -5 0 -12 12 -16
28 -3 15 -10 37 -15 50 -5 13 -6 35 -3 49 5 17 3 24 -4 20 -6 -5 -10 7 -10 30
0 21 -5 39 -11 41 -6 2 -11 10 -11 18 0 8 -9 33 -20 56 -15 32 -18 53 -14 93
5 37 2 60 -10 83 -29 57 -29 57 131 225 55 57 77 68 86 45 3 -10 9 -9 22 4 17
16 16 19 -19 61 -20 24 -62 66 -93 93 -31 27 -63 55 -70 63 -10 9 -34 12 -83
9 -39 -2 -70 -1 -70 2 0 25 103 40 170 25 31 -7 33 -6 21 9 -11 14 -11 16 3
16 9 0 16 -4 16 -9 0 -12 52 -24 59 -13 3 5 21 14 39 20 40 14 143 92 225 171
56 54 138 179 174 268 10 23 21 39 24 35 4 -4 12 -41 17 -82z m-1063 -120 c7
-21 25 -28 25 -10 0 6 5 10 11 10 5 0 7 -4 4 -10 -3 -5 5 -25 19 -43 15 -19
26 -39 26 -45 0 -6 6 -13 13 -15 9 -4 9 -6 0 -6 -6 -1 -19 9 -28 22 -12 17
-17 19 -24 8 -6 -10 -10 -10 -16 -1 -4 6 -2 17 4 23 17 17 13 29 -9 22 -11 -3
-20 -3 -20 2 0 4 -14 14 -30 22 -25 10 -28 16 -19 27 16 20 37 17 44 -6z m165
-120 c0 -7 38 -22 65 -25 6 -1 28 -7 50 -14 22 -6 60 -16 85 -20 44 -9 43 -9
-26 -10 -89 -1 -166 21 -188 54 -20 30 -20 36 -1 29 8 -4 15 -10 15 -14z m8
-75 c13 -11 35 -23 50 -26 20 -5 14 -7 -23 -8 -43 -1 -55 3 -82 30 -33 30 -38
40 -27 52 7 6 45 -16 82 -48z m472 -25 c0 -3 -18 -6 -41 -8 -26 -2 -38 1 -34
8 3 5 17 10 31 10 13 0 24 6 24 13 0 8 4 7 10 -3 5 -8 10 -17 10 -20z m-336
-42 c-10 -13 -19 -24 -19 -25 0 -1 -12 -4 -28 -8 -30 -8 -38 9 -9 19 9 3 28
13 42 21 34 20 36 19 14 -7z m117 12 c10 0 19 -5 19 -11 0 -6 -6 -9 -12 -6 -7
2 -21 0 -32 -5 -12 -6 -22 -6 -28 0 -14 14 0 35 19 28 8 -3 23 -6 34 -6z m135
-11 c6 -5 20 -7 30 -4 11 3 10 1 -4 -7 -16 -8 -26 -8 -30 -1 -10 15 -82 24
-82 11 0 -6 -3 -9 -6 -5 -3 3 -3 11 1 17 8 13 72 5 91 -11z m-270 -274 c-3 -9
1 -18 9 -21 20 -8 19 -24 0 -24 -9 0 -18 7 -21 15 -7 16 1 45 12 45 3 0 3 -7
0 -15z m41 -135 c10 -26 9 -60 -2 -57 -5 2 -11 17 -12 33 -2 16 -3 36 -4 44
-1 8 -1 26 1 40 3 20 4 17 7 -10 2 -19 6 -42 10 -50z m33 -100 c0 -5 -4 -10
-10 -10 -5 0 -10 5 -10 10 0 6 5 10 10 10 6 0 10 -4 10 -10z m-33 -16 c-3 -3
-12 -4 -19 -1 -8 3 -5 6 6 6 11 1 17 -2 13 -5z m0 -36 c-3 -8 -6 -5 -6 6 -1
11 2 17 5 13 3 -3 4 -12 1 -19z m-37 2 c0 -5 -4 -10 -10 -10 -5 0 -10 5 -10
10 0 6 5 10 10 10 6 0 10 -4 10 -10z m40 -57 c0 -19 -3 -24 -10 -17 -6 6 -8
18 -4 27 9 24 14 21 14 -10z m-34 -30 c-11 -11 -19 6 -11 24 8 17 8 17 12 0 3
-10 2 -21 -1 -24z m33 -45 l-1 -43 -8 35 c-8 32 -6 50 6 50 2 0 4 -19 3 -42z
m-7 -88 c3 -16 1 -30 -4 -30 -4 0 -8 14 -8 30 0 17 2 30 4 30 2 0 6 -13 8 -30z
m-45 -22 c-3 -7 -5 -2 -5 12 0 14 2 19 5 13 2 -7 2 -19 0 -25z m40 -450 c-3
-8 -6 -5 -6 6 -1 11 2 17 5 13 3 -3 4 -12 1 -19z m-52 -48 c-3 -5 -12 -7 -20
-3 -21 7 -19 13 6 13 11 0 18 -4 14 -10z m340 0 c3 -5 -1 -10 -10 -10 -9 0
-13 5 -10 10 3 6 8 10 10 10 2 0 7 -4 10 -10z m-258 -101 c12 -30 22 -73 23
-96 0 -24 4 -43 9 -43 4 0 25 14 46 30 59 47 77 39 24 -11 -17 -16 -28 -33
-24 -39 3 -5 -3 -10 -14 -10 -12 0 -21 5 -21 10 0 6 -9 10 -19 10 -21 0 -34
32 -46 108 -4 23 -11 42 -16 42 -5 0 -9 8 -9 18 -1 29 -36 -60 -43 -108 l-7
-45 16 40 c32 82 33 83 33 53 1 -15 -3 -30 -9 -33 -5 -3 -10 -19 -10 -35 0
-42 -10 -65 -21 -48 -7 11 -11 10 -19 -2 -8 -12 -10 -12 -10 -1 0 11 -3 11
-15 1 -11 -9 -19 -10 -27 -2 -15 15 1 34 24 26 19 -6 20 -2 17 39 -2 25 -1 43
4 40 4 -2 7 2 7 10 0 8 9 35 20 61 29 64 56 59 87 -15z m303 -32 c0 -5 -4 -5
-10 -2 -5 3 -10 14 -10 23 0 15 2 15 10 2 5 -8 10 -19 10 -23z m-70 -52 c0
-42 -19 -85 -37 -85 -15 0 -18 26 -3 35 6 3 10 18 10 32 0 22 -3 24 -25 19
-18 -5 -25 -2 -25 8 0 17 15 24 53 25 24 1 27 -2 27 -34z m27 13 c-3 -8 -6 -5
-6 6 -1 11 2 17 5 13 3 -3 4 -12 1 -19z m-289 -43 c-1 -22 -7 -35 -16 -35 -9
0 -12 6 -8 16 3 9 6 24 6 35 0 10 5 19 10 19 6 0 10 -16 8 -35z m217 -76 c10
-14 -22 -42 -41 -35 -16 6 -16 9 -4 16 10 7 -12 10 -65 9 -54 0 -73 -3 -60 -9
11 -5 14 -9 8 -9 -7 -1 -13 -5 -13 -11 0 -6 28 -10 65 -10 36 0 65 -4 65 -8 0
-25 -30 -32 -144 -32 -65 0 -117 -2 -115 -5 3 -2 49 -5 102 -6 76 -1 97 -4 97
-15 0 -8 -9 -14 -20 -14 -11 0 -20 -7 -20 -15 0 -11 -7 -13 -28 -9 -19 4 -34
0 -45 -11 -15 -15 -18 -15 -33 -1 -13 14 -39 21 -46 14 -2 -2 -19 8 -38 22
l-34 24 24 7 c23 6 23 7 4 8 -13 1 -24 9 -27 21 -5 19 0 20 68 20 41 0 77 5
80 10 4 6 -8 10 -30 10 -22 0 -34 4 -30 10 4 6 -16 11 -52 11 -55 2 -56 2 -18
9 50 9 345 8 350 -1z m-318 -25 c-3 -3 -12 -4 -19 -1 -8 3 -5 6 6 6 11 1 17
-2 13 -5z m228 -4 c4 -6 -7 -10 -24 -10 -17 0 -31 5 -31 10 0 6 11 10 24 10
14 0 28 -4 31 -10z m215 -51 c0 -11 -4 -17 -10 -14 -5 3 -10 13 -10 21 0 8 5
14 10 14 6 0 10 -9 10 -21z m-263 -241 c-2 -13 -4 -3 -4 22 0 25 2 35 4 23 2
-13 2 -33 0 -45z m335 -111 l-10 -62 1 60 c0 33 -3 67 -6 75 -8 18 -11 58 -8
85 2 11 10 -6 18 -38 12 -46 13 -72 5 -120z m-362 -107 c0 -22 -4 -40 -10 -40
-5 0 -10 18 -10 40 0 22 5 40 10 40 6 0 10 -18 10 -40z m345 -10 c0 -21 -3
-36 -7 -33 -5 2 -8 23 -8 45 0 23 3 38 7 34 4 -4 8 -24 8 -46z m2 -82 c-3 -8
-6 -5 -6 6 -1 11 2 17 5 13 3 -3 4 -12 1 -19z"/>
<path d="M3068 5173 c7 -3 16 -2 19 1 4 3 -2 6 -13 5 -11 0 -14 -3 -6 -6z"/>
<path d="M3197 5143 c-4 -3 -7 -13 -7 -22 1 -13 3 -13 11 2 11 19 8 33 -4 20z"/>
<path d="M3034 5115 c3 -9 6 -25 6 -35 0 -13 5 -17 20 -13 25 7 25 7 -6 39
-17 16 -24 19 -20 9z"/>
<path d="M3470 5070 c0 -5 10 -15 23 -21 22 -12 22 -12 3 10 -21 23 -26 26
-26 11z"/>
<path d="M3350 5045 c-7 -8 -9 -22 -6 -31 4 -9 8 -15 9 -13 1 2 10 14 20 25
15 18 16 22 3 27 -8 3 -20 -1 -26 -8z"/>
<path d="M3509 4869 c-11 -7 -10 -9 4 -9 10 0 28 -6 40 -14 12 -8 40 -17 62
-20 l40 -5 -35 12 c-19 6 -49 19 -66 28 -20 10 -37 13 -45 8z"/>
<path d="M3458 4823 c7 -3 16 -2 19 1 4 3 -2 6 -13 5 -11 0 -14 -3 -6 -6z"/>
<path d="M2735 4650 c3 -5 8 -10 11 -10 2 0 4 5 4 10 0 6 -5 10 -11 10 -5 0
-7 -4 -4 -10z"/>
<path d="M3410 4590 c0 -12 20 -12 75 -1 40 9 39 9 -17 10 -33 0 -58 -3 -58
-9z"/>
<path d="M2507 4444 c-14 -14 -7 -35 11 -32 9 2 17 10 17 17 0 16 -18 25 -28
15z"/>
<path d="M2347 4363 c-16 -15 -6 -33 18 -33 23 0 24 2 13 20 -14 21 -21 24
-31 13z"/>
<path d="M2292 4264 c-23 -35 -26 -69 -7 -66 6 0 13 11 17 24 5 20 6 21 8 3 1
-19 2 -19 12 2 6 13 7 31 2 47 l-9 25 -23 -35z"/>
<path d="M2110 3953 c0 -28 3 -34 10 -23 13 20 13 60 0 60 -5 0 -10 -17 -10
-37z"/>
<path d="M2261 3894 c0 -11 3 -14 6 -6 3 7 2 16 -1 19 -3 4 -6 -2 -5 -13z"/>
<path d="M2140 3766 c0 -17 28 -72 43 -85 11 -9 8 4 -10 35 -30 55 -33 60 -33
50z"/>
<path d="M2201 3714 c0 -11 3 -14 6 -6 3 7 2 16 -1 19 -3 4 -6 -2 -5 -13z"/>
<path d="M4075 4620 c3 -5 8 -10 11 -10 2 0 4 5 4 10 0 6 -5 10 -11 10 -5 0
-7 -4 -4 -10z"/>
<path d="M3380 3871 c0 -8 28 -109 48 -171 13 -43 -2 -98 -38 -135 -30 -31
-40 -35 -87 -35 -51 0 -56 2 -103 50 -27 28 -54 50 -59 50 -6 0 -7 -15 -4 -35
6 -37 -6 -46 -27 -20 -16 19 -30 19 -30 1 0 -21 34 -59 56 -62 136 -20 175
-22 239 -12 65 10 79 17 141 67 17 14 8 77 -14 101 -13 14 -25 18 -38 14 -18
-7 -18 -7 -1 13 21 24 14 45 -28 87 -14 14 -25 34 -25 45 0 11 -3 26 -6 35 -7
17 -24 22 -24 7z m119 -215 c12 -14 5 -46 -9 -46 -4 0 -10 8 -14 18 -3 9 -9
23 -12 30 -8 16 21 15 35 -2z"/>
<path d="M3150 3719 c0 -11 5 -17 10 -14 6 3 10 13 10 21 0 8 -4 14 -10 14 -5
0 -10 -9 -10 -21z"/>
<path d="M3360 3269 c-14 -5 -38 -9 -55 -8 -17 2 -35 1 -40 -2 -12 -6 -71 -23
-140 -40 -27 -6 -61 -18 -74 -26 l-23 -15 31 -19 c17 -10 38 -19 46 -19 8 0
15 -6 15 -12 0 -9 3 -8 10 2 6 9 5 17 -3 22 -8 5 -6 12 6 26 15 16 32 20 94
21 41 1 79 3 83 6 13 8 173 7 193 -1 17 -6 15 -9 -12 -26 -17 -11 -31 -24 -31
-29 0 -5 -9 -18 -21 -30 -11 -11 -17 -24 -13 -27 3 -4 9 -1 11 6 3 6 11 12 18
12 8 0 17 9 20 20 4 14 15 20 34 20 39 0 81 41 81 80 0 17 -5 30 -12 31 -7 0
-22 2 -33 4 -66 11 -163 14 -185 4z"/>
<path d="M3175 3100 c3 -5 10 -10 16 -10 5 0 9 5 9 10 0 6 -7 10 -16 10 -8 0
-12 -4 -9 -10z"/>
<path d="M3240 3091 c0 -5 5 -13 10 -16 6 -3 10 -2 10 4 0 5 -4 13 -10 16 -5
3 -10 2 -10 -4z"/>
<path d="M3210 3080 c0 -5 5 -10 10 -10 6 0 10 5 10 10 0 6 -4 10 -10 10 -5 0
-10 -4 -10 -10z"/>
<path d="M3280 3086 c0 -2 7 -7 16 -10 8 -3 12 -2 9 4 -6 10 -25 14 -25 6z"/>
<path d="M3405 2989 c-76 -15 -95 -21 -95 -31 0 -6 13 -8 33 -4 17 4 46 9 64
12 17 4 34 12 37 20 3 8 4 13 3 13 -1 -1 -20 -5 -42 -10z"/>
<path d="M3217 2959 c8 -8 16 -8 30 0 16 9 14 10 -11 11 -22 0 -27 -3 -19 -11z"/>
<path d="M3450 1398 c0 -9 5 -20 10 -23 13 -8 13 5 0 25 -8 13 -10 13 -10 -2z"/>
<path d="M3473 1333 c1 -18 6 -28 10 -24 4 4 3 18 -2 32 -9 23 -9 22 -8 -8z"/>
<path d="M3476 1255 c-3 -9 1 -18 10 -22 19 -7 26 0 18 21 -8 20 -20 21 -28 1z"/>
<path d="M3550 962 c1 -4 7 -18 14 -32 l14 -25 -1 28 c-1 15 -8 29 -14 32 -7
2 -13 1 -13 -3z"/>
<path d="M3590 767 c-3 -31 -2 -57 3 -57 4 0 7 -12 7 -27 0 -20 3 -24 11 -16
9 9 9 23 1 55 -7 24 -13 57 -15 73 -2 18 -5 7 -7 -28z"/>
<path d="M3198 873 c7 -3 16 -2 19 1 4 3 -2 6 -13 5 -11 0 -14 -3 -6 -6z"/>
</g>
</svg>
